<?xml version="1.0" standalone="no"?>
<!DOCTYPE svg PUBLIC "-//W3C//DTD SVG 20010904//EN"
 "http://www.w3.org/TR/2001/REC-SVG-20010904/DTD/svg10.dtd">
<svg version="1.0" xmlns="http://www.w3.org/2000/svg"
 width="512.000000pt" height="512.000000pt" viewBox="0 0 512.000000 512.000000"
 preserveAspectRatio="xMidYMid meet">
<metadata>
Created by potrace 1.11, written by Peter Selinger 2001-2013
</metadata>
<g transform="translate(0.000000,512.000000) scale(0.100000,-0.100000)"
fill="#000000" stroke="none">
<path d="M2360 5014 c-118 -14 -274 -38 -330 -50 -420 -96 -806 -296 -1115
-577 -227 -206 -397 -425 -530 -679 -679 -1302 -95 -2887 1263 -3432 304 -122
564 -171 912 -171 228 0 315 8 500 47 722 150 1335 613 1679 1268 225 430 318
917 266 1400 -120 1119 -966 2000 -2090 2175 -95 15 -477 28 -555 19z m1629
-1443 c117 -36 195 -100 246 -200 38 -76 54 -161 62 -318 l6 -143 -151 0 -152
0 0 88 c-1 230 -42 304 -169 304 -75 0 -116 -22 -145 -77 -21 -39 -21 -49 -21
-680 0 -622 1 -641 20 -674 34 -59 68 -76 143 -76 80 0 113 18 145 79 20 39
21 55 22 276 l0 235 -77 3 -78 3 0 144 0 145 230 0 230 0 0 -338 c0 -455 -14
-549 -97 -671 -92 -134 -299 -198 -503 -157 -185 38 -294 143 -337 326 -16 68
-18 138 -18 715 0 575 2 646 17 702 47 171 133 264 288 314 79 26 257 26 339
0z m-2797 -427 l3 -427 201 424 200 424 157 3 c86 1 157 -1 157 -4 0 -4 -83
-171 -185 -370 -102 -200 -185 -369 -185 -377 0 -7 86 -299 190 -647 105 -348
190 -635 190 -637 0 -2 -75 -2 -166 -1 l-167 3 -133 445 c-73 245 -133 447
-134 450 -1 3 -30 -51 -65 -120 l-64 -125 0 -327 -1 -328 -160 0 -160 0 0
1020 0 1020 160 0 160 0 2 -426z m1876 279 l3 -143 -266 0 -265 0 0 -285 0
-285 205 0 205 0 0 -145 0 -145 -205 0 -205 0 0 -445 0 -445 -160 0 -160 0 0
1020 0 1020 423 -2 422 -3 3 -142z"/>
</g>
</svg>
